<svg width="1920" height="1080" viewBox="0 0 1920 1080" fill="none" xmlns="http://www.w3.org/2000/svg">
<ellipse cx="544.17" cy="1189" rx="172.17" ry="168" fill="black" fill-opacity="0.08"/>
<ellipse cx="-72.8299" cy="296" rx="172.17" ry="168" fill="black" fill-opacity="0.08"/>
<ellipse cx="1920" cy="1080" rx="289" ry="282" fill="black" fill-opacity="0.08"/>
<ellipse cx="659" cy="-123" rx="289" ry="282" fill="black" fill-opacity="0.08"/>
<ellipse cx="132.333" cy="740" rx="96.3333" ry="94" fill="black" fill-opacity="0.08"/>
<ellipse cx="1466.33" cy="513" rx="96.3333" ry="94" fill="black" fill-opacity="0.08"/>
<ellipse cx="562.333" cy="831" rx="96.3333" ry="94" fill="black" fill-opacity="0.08"/>
<ellipse cx="435.918" cy="393" rx="37.9184" ry="37" fill="black" fill-opacity="0.08"/>
<ellipse cx="1369.92" cy="1021" rx="37.9184" ry="37" fill="black" fill-opacity="0.08"/>
<ellipse cx="1115.92" cy="683" rx="37.9184" ry="37" fill="black" fill-opacity="0.08"/>
<ellipse cx="1331.92" cy="64" rx="37.9184" ry="37" fill="black" fill-opacity="0.08"/>
<ellipse cx="1696.33" cy="121" rx="96.3333" ry="94" fill="black" fill-opacity="0.08"/>
<rect x="1793.15" y="682.578" width="39" height="39" rx="12" transform="rotate(135 1793.15 682.578)" fill="#D6D6D6"/>
<rect x="218.154" y="91.5781" width="39" height="39" rx="12" transform="rotate(135 218.154 91.5781)" fill="#D6D6D6"/>
<rect x="229.024" y="1062.01" width="58" height="58" rx="12" transform="rotate(135 229.024 1062.01)" fill="#D6D6D6"/>
</svg>
