<svg width="18" height="24" viewBox="0 0 18 24" fill="none" xmlns="http://www.w3.org/2000/svg">
<path d="M12.913 17.4361V15.3399C12.9077 14.803 13.0391 14.2712 13.2987 13.7792C13.5583 13.2872 13.9402 12.8459 14.4197 12.4843C15.6854 11.5488 16.5783 10.3175 16.9803 8.95304C17.3823 7.58861 17.2744 6.15533 16.671 4.84272C16.0675 3.5301 14.9969 2.39997 13.6007 1.60173C12.2045 0.803502 10.5484 0.374763 8.85137 0.372204C7.15438 0.369645 5.49641 0.793386 4.09667 1.5874C2.69693 2.38142 1.62134 3.50832 1.01211 4.8191C0.402884 6.12989 0.288708 7.56283 0.68468 8.92847C1.08065 10.2941 1.96812 11.5281 3.22976 12.4674C3.71312 12.831 4.09881 13.2746 4.36186 13.7694C4.62491 14.2643 4.75946 14.7993 4.75679 15.3399V17.3593" fill="#FFE082"/>
<path d="M12.913 17.8112C12.7928 17.8112 12.6776 17.7717 12.5926 17.7014C12.5076 17.631 12.4599 17.5356 12.4599 17.4362V15.3399C12.4544 14.7504 12.599 14.1666 12.8844 13.6264C13.1697 13.0862 13.5894 12.6019 14.1161 12.2049C15.3138 11.3204 16.1588 10.1558 16.5396 8.86523C16.9204 7.57465 16.8189 6.21881 16.2485 4.977C15.6781 3.73518 14.6658 2.66587 13.3453 1.91043C12.0249 1.155 10.4584 0.749018 8.85318 0.746175C7.24792 0.743331 5.67941 1.14376 4.35504 1.89451C3.03068 2.64526 2.01282 3.71098 1.43605 4.95076C0.859275 6.19054 0.750754 7.546 1.12483 8.83793C1.49891 10.1298 2.33797 11.2974 3.53107 12.1862C4.06213 12.5853 4.48598 13.0722 4.77518 13.6155C5.06438 14.1588 5.21248 14.7463 5.2099 15.3399V17.3574C5.2099 17.4569 5.16216 17.5523 5.07718 17.6226C4.9922 17.6929 4.87695 17.7324 4.75677 17.7324C4.6366 17.7324 4.52134 17.6929 4.43637 17.6226C4.35139 17.5523 4.30365 17.4569 4.30365 17.3574V15.3399C4.30569 14.8523 4.18416 14.3698 3.94689 13.9234C3.70962 13.4771 3.36189 13.0769 2.92615 12.7487C1.59659 11.7587 0.661319 10.4582 0.243961 9.01895C-0.173396 7.57971 -0.0531913 6.06954 0.588687 4.68804C1.23057 3.30655 2.3639 2.11878 3.83888 1.28172C5.31386 0.444663 7.06105 -0.00226495 8.84951 8.63158e-06C10.638 0.00228222 12.3835 0.453651 13.8554 1.29445C15.3272 2.13526 16.4562 3.32591 17.0929 4.70903C17.7296 6.09215 17.8442 7.60262 17.4215 9.04079C16.9988 10.479 16.0588 11.7771 14.7255 12.7637C14.2929 13.0899 13.9482 13.488 13.714 13.9319C13.4798 14.3758 13.3612 14.8556 13.3661 15.3399V17.4362C13.3661 17.5356 13.3184 17.631 13.2334 17.7014C13.1485 17.7717 13.0332 17.8112 12.913 17.8112Z" fill="#404040"/>
<path d="M12.913 17.2487V20.2487C12.91 21.143 12.4794 22 11.7153 22.6324C10.9511 23.2648 9.91557 23.6212 8.8349 23.6237C7.75423 23.6212 6.71868 23.2648 5.95453 22.6324C5.19038 22 4.75976 21.143 4.75677 20.2487V17.2487H12.913Z" fill="#9E9E9E"/>
<path d="M8.8349 23.9987C7.63314 23.9987 6.4806 23.6036 5.63082 22.9003C4.78105 22.197 4.30365 21.2432 4.30365 20.2487V17.2487C4.30365 17.1492 4.35139 17.0538 4.43637 16.9835C4.52134 16.9132 4.6366 16.8737 4.75677 16.8737H12.913C13.0332 16.8737 13.1485 16.9132 13.2334 16.9835C13.3184 17.0538 13.3661 17.1492 13.3661 17.2487V20.2487C13.3661 21.2432 12.8888 22.197 12.039 22.9003C11.1892 23.6036 10.0367 23.9987 8.8349 23.9987ZM5.2099 17.6237V20.2487C5.2099 21.0443 5.59182 21.8074 6.27164 22.37C6.95146 22.9326 7.87349 23.2487 8.8349 23.2487C9.79631 23.2487 10.7183 22.9326 11.3982 22.37C12.078 21.8074 12.4599 21.0443 12.4599 20.2487V17.6237H5.2099Z" fill="#404040"/>
<path d="M6.56927 19.4987C6.50976 19.5021 6.45002 19.4958 6.39345 19.4802C6.33688 19.4645 6.28459 19.4398 6.23957 19.4074C6.14864 19.342 6.09284 19.2494 6.08442 19.1499C6.07601 19.0505 6.11568 18.9523 6.19471 18.8771C6.27374 18.8018 6.38565 18.7556 6.50583 18.7487L12.8496 17.9987C12.9698 17.9845 13.0918 18.0104 13.1889 18.0707C13.286 18.131 13.3501 18.2208 13.3673 18.3202C13.3844 18.4197 13.3531 18.5207 13.2802 18.601C13.2073 18.6814 13.0989 18.7345 12.9787 18.7487L6.63497 19.4987H6.56927Z" fill="#404040"/>
<path d="M6.56927 20.9987C6.44909 21.0056 6.33049 20.9728 6.23957 20.9074C6.14864 20.842 6.09284 20.7494 6.08442 20.6499C6.07601 20.5505 6.11568 20.4523 6.19471 20.3771C6.27374 20.3018 6.38565 20.2556 6.50583 20.2487L12.8496 19.4987C12.9698 19.4845 13.0918 19.5104 13.1889 19.5707C13.286 19.631 13.3501 19.7208 13.3673 19.8202C13.3844 19.9197 13.3531 20.0207 13.2802 20.101C13.2073 20.1814 13.0989 20.2345 12.9787 20.2487L6.63497 20.9987H6.56927Z" fill="#404040"/>
</svg>
