<svg width="36" height="30" viewBox="0 0 36 30" fill="none" xmlns="http://www.w3.org/2000/svg">
<path fill-rule="evenodd" clip-rule="evenodd" d="M19.8797 17.2244C21.7246 17.2244 23.4939 17.9503 24.7985 19.2424C26.1031 20.5345 26.8359 22.2869 26.8359 24.1142V27.5591C26.8359 28.0159 26.6527 28.4541 26.3266 28.7771C26.0004 29.1001 25.5581 29.2816 25.0969 29.2816C24.6356 29.2816 24.1933 29.1001 23.8672 28.7771C23.541 28.4541 23.3578 28.0159 23.3578 27.5591V24.1142C23.3578 23.2006 22.9914 22.3244 22.3391 21.6783C21.6868 21.0323 20.8021 20.6693 19.8797 20.6693H7.70625C6.78379 20.6693 5.89912 21.0323 5.24684 21.6783C4.59457 22.3244 4.22813 23.2006 4.22813 24.1142V27.5591C4.22813 28.0159 4.0449 28.4541 3.71877 28.7771C3.39263 29.1001 2.95029 29.2816 2.48906 29.2816C2.02783 29.2816 1.5855 29.1001 1.25936 28.7771C0.933222 28.4541 0.75 28.0159 0.75 27.5591V24.1142C0.75 22.2869 1.48289 20.5345 2.78744 19.2424C4.09199 17.9503 5.86134 17.2244 7.70625 17.2244H19.8797ZM30.3141 17.2244C31.6977 17.2244 33.0248 17.7689 34.0032 18.7379C34.9816 19.707 35.5312 21.0213 35.5312 22.3918V25.8367C35.5312 26.2935 35.348 26.7316 35.0219 27.0546C34.6958 27.3776 34.2534 27.5591 33.7922 27.5591C33.331 27.5591 32.8886 27.3776 32.5625 27.0546C32.2363 26.7316 32.0531 26.2935 32.0531 25.8367V22.3918C32.0531 21.935 31.8699 21.4969 31.5438 21.1738C31.2176 20.8508 30.7753 20.6693 30.3141 20.6693H27.8516C27.2487 19.3054 26.3004 18.1188 25.0986 17.2244H30.3141ZM13.793 0C15.8685 0 17.859 0.816621 19.3266 2.27022C20.7943 3.72381 21.6188 5.69531 21.6188 7.751C21.6188 9.8067 20.7943 11.7782 19.3266 13.2318C17.859 14.6854 15.8685 15.502 13.793 15.502C11.7174 15.502 9.72692 14.6854 8.25931 13.2318C6.79169 11.7782 5.96719 9.8067 5.96719 7.751C5.96719 5.69531 6.79169 3.72381 8.25931 2.27022C9.72692 0.816621 11.7174 0 13.793 0ZM28.575 5.16733C29.9587 5.16733 31.2857 5.71175 32.2641 6.68081C33.2425 7.64988 33.7922 8.96421 33.7922 10.3347C33.7922 11.7051 33.2425 13.0195 32.2641 13.9885C31.2857 14.9576 29.9587 15.502 28.575 15.502C27.1913 15.502 25.8643 14.9576 24.8859 13.9885C23.9075 13.0195 23.3578 11.7051 23.3578 10.3347C23.3578 8.96421 23.9075 7.64988 24.8859 6.68081C25.8643 5.71175 27.1913 5.16733 28.575 5.16733ZM13.793 3.44489C12.6399 3.44489 11.5341 3.89857 10.7187 4.70612C9.90337 5.51367 9.44531 6.60895 9.44531 7.751C9.44531 8.89305 9.90337 9.98833 10.7187 10.7959C11.5341 11.6034 12.6399 12.0571 13.793 12.0571C14.946 12.0571 16.0519 11.6034 16.8672 10.7959C17.6826 9.98833 18.1406 8.89305 18.1406 7.751C18.1406 6.60895 17.6826 5.51367 16.8672 4.70612C16.0519 3.89857 14.946 3.44489 13.793 3.44489ZM28.575 8.61222C28.1138 8.61222 27.6714 8.7937 27.3453 9.11672C27.0192 9.43974 26.8359 9.87785 26.8359 10.3347C26.8359 10.7915 27.0192 11.2296 27.3453 11.5526C27.6714 11.8756 28.1138 12.0571 28.575 12.0571C29.0362 12.0571 29.4786 11.8756 29.8047 11.5526C30.1308 11.2296 30.3141 10.7915 30.3141 10.3347C30.3141 9.87785 30.1308 9.43974 29.8047 9.11672C29.4786 8.7937 29.0362 8.61222 28.575 8.61222Z" fill="#686868"/>
</svg>
