<svg width="35" height="30" viewBox="0 0 35 30" fill="none" xmlns="http://www.w3.org/2000/svg">
<path d="M7.89474 30H26.8421L17.3684 20.5263M31.5789 0H3.15789C2.32037 0 1.51715 0.332706 0.924926 0.924926C0.332706 1.51715 0 2.32037 0 3.15789V22.1053C0 22.9428 0.332706 23.746 0.924926 24.3382C1.51715 24.9305 2.32037 25.2632 3.15789 25.2632H9.47368V22.1053H3.15789V3.15789H31.5789V22.1053H25.2632V25.2632H31.5789C32.4165 25.2632 33.2197 24.9305 33.8119 24.3382C34.4041 23.746 34.7368 22.9428 34.7368 22.1053V3.15789C34.7368 2.32037 34.4041 1.51715 33.8119 0.924926C33.2197 0.332706 32.4165 0 31.5789 0Z" fill="#CCCCCC"/>
</svg>
