<svg width="32" height="31" viewBox="0 0 32 31" fill="none" xmlns="http://www.w3.org/2000/svg">
<path d="M11.3352 28.9517H8.22343C4.78632 28.9517 2 26.1653 2 22.7283V12.9382C2 10.762 3.13673 8.74382 4.99781 7.61589L12.7771 2.90117C14.7598 1.69961 17.2457 1.69961 19.2283 2.90117L27.0076 7.61589C28.8687 8.74382 30.0055 10.762 30.0055 12.9382V22.7283C30.0055 26.1653 27.2191 28.9517 23.782 28.9517H20.6703M11.3352 28.9517V22.7283C11.3352 20.1504 13.4248 18.0607 16.0027 18.0607C18.5806 18.0607 20.6703 20.1504 20.6703 22.7283V28.9517M11.3352 28.9517H20.6703" stroke="#363636" stroke-width="2.33379" stroke-linecap="round" stroke-linejoin="round"/>
</svg>
