<svg width="25" height="24" viewBox="0 0 25 24" fill="none" xmlns="http://www.w3.org/2000/svg">
<path d="M9.99707 3C11.721 3 13.3743 3.68482 14.5933 4.90381C15.8123 6.12279 16.4971 7.77609 16.4971 9.5C16.4971 11.11 15.9071 12.59 14.9371 13.73L15.2071 14H15.9971L20.9971 19L19.4971 20.5L14.4971 15.5V14.71L14.2271 14.44C13.0871 15.41 11.6071 16 9.99707 16C8.27316 16 6.61986 15.3152 5.40088 14.0962C4.18189 12.8772 3.49707 11.2239 3.49707 9.5C3.49707 7.77609 4.18189 6.12279 5.40088 4.90381C6.61986 3.68482 8.27316 3 9.99707 3ZM9.99707 5C7.49707 5 5.49707 7 5.49707 9.5C5.49707 12 7.49707 14 9.99707 14C12.4971 14 14.4971 12 14.4971 9.5C14.4971 7 12.4971 5 9.99707 5Z" fill="#5D6679"/>
</svg>
