<svg width="26" height="30" viewBox="0 0 26 30" fill="none" xmlns="http://www.w3.org/2000/svg">
<path d="M22.8571 21.4286V14C22.1429 14.1429 21.4286 14.2857 20.7143 14.2857H20V22.8571H5.71429V12.8571C5.71429 8.85714 8.85714 5.71429 12.8571 5.71429C13 3.85714 13.8571 2.28571 15 1C14.5714 0.428571 13.7143 0 12.8571 0C11.2857 0 10 1.28571 10 2.85714V3.28571C5.71429 4.57143 2.85714 8.42857 2.85714 12.8571V21.4286L0 24.2857V25.7143H25.7143V24.2857L22.8571 21.4286ZM10 27.1429C10 28.7143 11.2857 30 12.8571 30C14.4286 30 15.7143 28.7143 15.7143 27.1429H10ZM25.7143 6.42857C25.7143 9.14286 23.4286 11.4286 20.7143 11.4286C18 11.4286 15.7143 9.14286 15.7143 6.42857C15.7143 3.71429 18 1.42857 20.7143 1.42857C23.4286 1.42857 25.7143 3.71429 25.7143 6.42857Z" fill="black"/>
</svg>
