<svg width="29" height="29" viewBox="0 0 29 29" fill="none" xmlns="http://www.w3.org/2000/svg">
<ellipse cx="14.5" cy="14.1528" rx="14.5" ry="14.1528" fill="white"/>
<path d="M14 12.9337C17.1055 12.9337 19.625 10.4745 19.625 7.44342C19.625 4.41232 17.1055 1.95312 14 1.95312C10.8945 1.95312 8.375 4.41232 8.375 7.44342C8.375 10.4745 10.8945 12.9337 14 12.9337ZM19 14.1538H16.8477C15.9805 14.5427 15.0156 14.7638 14 14.7638C12.9844 14.7638 12.0234 14.5427 11.1523 14.1538H9C6.23828 14.1538 4 16.3385 4 19.034V19.6441C4 20.6544 4.83984 21.4742 5.875 21.4742H22.125C23.1602 21.4742 24 20.6544 24 19.6441V19.034C24 16.3385 21.7617 14.1538 19 14.1538Z" fill="black"/>
</svg>
