<svg width="36" height="36" viewBox="0 0 36 36" fill="none" xmlns="http://www.w3.org/2000/svg">
<path d="M27.028 4.2991C27.2385 4.06284 27.4932 3.87064 27.7775 3.73346C28.0618 3.59629 28.3702 3.51684 28.685 3.49964C28.9999 3.48245 29.315 3.52785 29.6124 3.63326C29.9098 3.73867 30.1837 3.90201 30.4183 4.11396C32.1769 5.6978 33.5833 7.63756 34.5453 9.80621C35.5072 11.9749 36.0031 14.3235 36.0005 16.6984C36.0005 26.0356 28.4792 33.6021 19.2012 33.6021V28.7724C21.6301 28.7725 24.0019 28.0308 26.003 26.6454C28.004 25.2601 29.5402 23.2963 30.4083 21.0137C31.2764 18.7311 31.4356 16.2371 30.8649 13.8615C30.2942 11.4859 29.0205 9.34042 27.212 7.70881C26.7383 7.28117 26.4528 6.68172 26.4183 6.04229C26.3838 5.40286 26.6031 4.77583 27.028 4.2991Z" fill="#686868"/>
<path d="M35.1936 21.8457C35.3722 21.2429 35.3057 20.5941 35.0082 20.0388C34.7108 19.4834 34.2062 19.0659 33.603 18.8759C32.9998 18.686 32.3461 18.7387 31.7824 19.0229C31.2187 19.3071 30.7901 19.7999 30.5886 20.3955C29.7267 23.0967 27.9303 25.4058 25.5177 26.9138C23.105 28.4218 20.2318 29.0313 17.4071 28.6344C14.236 28.1887 11.3707 26.5094 9.44162 23.9658C7.51252 21.4222 6.67758 18.2228 7.12049 15.0713L2.33787 14.3991C1.04662 23.5868 7.49264 32.088 16.7391 33.3875C24.9413 34.5402 32.7296 29.6149 35.1936 21.8457Z" fill="#C72732"/>
<path d="M16.4002 0.0262402C17.0219 -0.0667372 17.6552 0.0894826 18.1637 0.461317C18.6722 0.833151 19.0155 1.39091 19.1196 2.0147C19.2238 2.63848 19.0806 3.27849 18.7207 3.79714C18.3609 4.31578 17.8132 4.67165 17.1953 4.78826C14.4005 5.26582 11.8638 6.72337 10.0347 8.90269C8.20563 11.082 7.20218 13.8424 7.20214 16.6949C7.20214 19.8971 8.46637 22.9682 10.7167 25.2326C12.9671 27.4969 16.0192 28.769 19.2016 28.769V33.5986C9.92363 33.5986 2.40234 26.0322 2.40234 16.6949C2.40234 8.41209 8.36369 1.38498 16.4002 0.0262402Z" fill="#14355A"/>
</svg>
