<svg width="24" height="24" viewBox="0 0 24 24" fill="none" xmlns="http://www.w3.org/2000/svg">
<path fill-rule="evenodd" clip-rule="evenodd" d="M13 15H8C6.895 15 6 14.105 6 13V8C6 6.895 6.895 6 8 6H13C14.105 6 15 6.895 15 8V13C15 14.105 14.105 15 13 15Z" stroke="#DBE5DF" stroke-width="1.5" stroke-linecap="round" stroke-linejoin="round"/>
<path d="M17 21L21 21L21 17" stroke="#DBE5DF" stroke-width="1.5" stroke-linecap="round" stroke-linejoin="round"/>
<path d="M14.5 14.4998L20.5901 20.5898" stroke="#DBE5DF" stroke-width="1.5" stroke-linecap="round" stroke-linejoin="round"/>
<path d="M8 21H5C3.895 21 3 20.105 3 19V5C3 3.895 3.895 3 5 3H19C20.105 3 21 3.895 21 5V8" stroke="#DBE5DF" stroke-width="1.5" stroke-linecap="round" stroke-linejoin="round"/>
</svg>
