<svg width="75" height="82" viewBox="0 0 75 82" fill="none" xmlns="http://www.w3.org/2000/svg">
<g clip-path="url(#clip0_1306_2121)">
<path d="M37.3632 24.5101C42.1999 24.5101 46.1209 20.2232 46.1209 14.935C46.1209 9.64678 42.1999 5.35986 37.3632 5.35986C32.5264 5.35986 28.6055 9.64678 28.6055 14.935C28.6055 20.2232 32.5264 24.5101 37.3632 24.5101Z" fill="#010002"/>
<path d="M68.018 41.278L59.8557 39.4164C57.0749 38.7795 54.3295 40.173 52.878 42.6504C51.4682 41.8587 49.9522 41.176 48.3397 40.6094V35.3028C48.343 31.2877 45.3367 28.0044 41.6774 28.0044H33.3316C29.6529 28.0044 26.6596 31.2877 26.6596 35.3028V40.6375C25.0632 41.1935 23.5633 41.8762 22.1439 42.6715C20.6924 40.1835 17.9436 38.7795 15.1595 39.4164L6.99072 41.278C3.40521 42.0979 1.07813 45.9864 1.82806 49.9206L3.87835 60.6288C4.62187 64.5524 8.18156 67.0967 11.7704 66.2768L14.3548 65.6856C15.6486 67.7758 17.4382 69.6936 19.7298 71.3335C24.5029 74.754 30.8082 76.6401 37.4995 76.6401C47.7378 76.6401 56.5567 72.1394 60.6185 65.675L63.2449 66.2768C66.8304 67.0931 70.3901 64.5524 71.1336 60.6288L73.187 49.9206C73.9337 45.9864 71.6066 42.0979 68.018 41.278ZM37.4962 72.9839C31.4517 72.9839 25.787 71.3195 21.5611 68.2755C20.1127 67.2409 18.9121 66.0903 17.9499 64.8586L19.9293 64.4046C23.5212 63.5883 25.8483 59.6998 25.0984 55.7726L23.2606 46.1446C24.3323 45.5148 25.4589 44.9622 26.6561 44.4908V46.2468C26.6561 50.2548 29.6558 53.5381 33.3282 53.5381H41.6739C45.3367 53.5381 48.3365 50.2514 48.3365 46.2468V44.3992C49.5562 44.8743 50.702 45.4198 51.7642 46.0391L49.9006 55.7762C49.1571 59.7034 51.4809 63.5919 55.0728 64.4082L57.0715 64.8656C53.3445 69.6902 45.9707 72.9839 37.4962 72.9839Z" fill="#010002"/>
<path d="M66.2421 37.0975C71.0788 37.0975 74.9998 32.8106 74.9998 27.5224C74.9998 22.2342 71.0788 17.9473 66.2421 17.9473C61.4053 17.9473 57.4844 22.2342 57.4844 27.5224C57.4844 32.8106 61.4053 37.0975 66.2421 37.0975Z" fill="#010002"/>
<path d="M10.5546 36.8968C15.2923 35.813 18.3178 30.7352 17.3393 25.5587C16.3416 20.3858 11.7068 17.0639 6.96581 18.1478C2.23452 19.228 -0.803838 24.3024 0.187511 29.4789C1.17573 34.6588 5.8169 37.9773 10.5546 36.8968Z" fill="#010002"/>
</g>
<defs>
<clipPath id="clip0_1306_2121">
<rect width="75" height="82" fill="white"/>
</clipPath>
</defs>
</svg>
