<svg width="20" height="20" viewBox="0 0 20 20" fill="none" xmlns="http://www.w3.org/2000/svg">
<path d="M14 18V20H2C0.9 20 0 19.1 0 18V5H2V18H14ZM18 0H6C4.9 0 4 0.9 4 2V14C4 15.1 4.9 16 6 16H18C19.1 16 20 15.1 20 14V2C20 0.9 19.1 0 18 0ZM13 12H11V10H13V12ZM14.8 6.8C14.5 7.2 14.1 7.5 13.7 7.7C13.5 7.9 13.3 8 13.2 8.2C13 8.4 13 8.7 13 9H11C11 8.5 11.1 8.1 11.3 7.8C11.5 7.5 11.8 7.2 12.3 6.9C12.6 6.7 12.8 6.5 12.9 6.3C13.1 6.1 13.1 5.8 13.1 5.5C13.1 5.2 13 4.9 12.8 4.7C12.6 4.5 12.4 4.4 12 4.4C11.7 4.4 11.5 4.5 11.3 4.6C11.1 4.8 11 5 11 5.3H9.1C9.1 4.5 9.3 3.9 9.9 3.5C10.6 3.2 11.3 3 12.2 3C13.1 3 13.9 3.2 14.4 3.7C14.9 4.2 15.2 4.8 15.2 5.5C15.2 6 15 6.4 14.8 6.8Z" fill="#CCCCCC"/>
</svg>
