<svg width="97" height="94" viewBox="0 0 97 94" fill="none" xmlns="http://www.w3.org/2000/svg">
<path fill-rule="evenodd" clip-rule="evenodd" d="M80.0239 39.8717C78.771 27.4167 71.1726 7.83337 47.6906 7.83337C24.2085 7.83337 16.6101 27.4167 15.3572 39.8717C10.962 41.4882 8.06277 45.5776 8.08213 50.1334V55.6167C8.08213 61.6734 13.1489 66.5834 19.3989 66.5834C25.6489 66.5834 30.7156 61.6734 30.7156 55.6167V50.1334C30.6952 45.676 27.9025 41.6706 23.6426 39.9892C24.451 32.7825 28.4118 15.6667 47.6906 15.6667C66.9693 15.6667 70.8897 32.7825 71.6981 39.9892C67.4468 41.6743 64.6682 45.6823 64.6656 50.1334V55.6167C64.6831 59.8271 67.1779 63.6587 71.0918 65.4867C69.3943 68.5809 65.0697 72.7717 54.4401 74.025C52.3153 70.8983 48.2045 69.6657 44.6288 71.0832C41.0531 72.5006 39.0122 76.1719 39.7579 79.8453C40.5036 83.5187 43.8273 86.1667 47.6906 86.1667C50.7434 86.1503 53.5262 84.4686 54.8847 81.8192C72.2235 79.9 77.7606 71.2442 79.4985 66.1525C84.2002 64.6766 87.3623 60.4057 87.2989 55.6167V50.1334C87.3183 45.5776 84.4192 41.4882 80.0239 39.8717ZM22.6322 55.6167C22.6322 57.3472 21.1846 58.75 19.3989 58.75C17.6132 58.75 16.1656 57.3472 16.1656 55.6167V50.1334C16.1656 49.0139 16.7818 47.9795 17.7822 47.4198C18.7826 46.8601 20.0152 46.8601 21.0156 47.4198C22.016 47.9795 22.6322 49.0139 22.6322 50.1334V55.6167ZM72.7489 50.1334C72.7489 48.4029 74.1965 47 75.9822 47C77.7679 47 79.2156 48.4029 79.2156 50.1334V55.6167C79.2156 57.3472 77.7679 58.75 75.9822 58.75C74.1965 58.75 72.7489 57.3472 72.7489 55.6167V50.1334Z" fill="black"/>
</svg>
