<svg width="63" height="69" viewBox="0 0 63 69" fill="none" xmlns="http://www.w3.org/2000/svg">
<path d="M13.6139 10.9831C16.346 10.9831 18.5609 13.1356 18.5609 15.7908C18.5609 18.4459 16.346 20.5984 13.6139 20.5984C10.8818 20.5984 8.66693 18.4459 8.66693 15.7908C8.66693 13.1356 10.8818 10.9831 13.6139 10.9831ZM62.6397 40.337V37.1533H60.4215V4.77313H47.317V0.539062H44.041V4.77313H30.9365V24.9486H29.384C29.2669 24.5411 29.045 24.1562 28.715 23.8357C28.2039 23.3387 27.5338 23.0905 26.8635 23.0905C26.1931 23.0905 25.5228 23.3387 25.0119 23.8357L19.9293 28.7752C19.9293 28.7752 14.4673 23.4719 13.6852 22.7522C13.2486 22.3503 12.5292 21.8692 11.8805 21.6428C9.15589 20.693 6.15808 22.0727 5.18349 24.7179L0.896035 37.2056C0.540481 38.2411 0.359375 39.3257 0.359375 40.4176V65.012C0.359375 66.9723 2.04174 68.5504 4.07994 68.4572C5.9889 68.3698 7.45771 66.7718 7.45771 64.9147V43.76L13.6575 29.8789L18.0775 34.1741C18.5886 34.6712 19.259 34.9194 19.929 34.9194C20.5991 34.9194 21.2697 34.6709 21.7806 34.1741L28.7147 27.4353C28.8201 27.3329 28.9122 27.2224 28.9959 27.1081H30.9365V37.1533H28.7524V40.337H34.2125L28.7524 68.4609H32.0284L37.4885 40.337H44.0407V54.3262H47.317V40.337H53.8692L59.3296 68.4609H62.6056L57.1455 40.337H62.6397ZM34.2125 37.1533V27.1081H39.6726V24.9486H34.2125V7.95683H57.1452V37.1533H34.2125Z" fill="black"/>
</svg>
