<svg width="20" height="21" viewBox="0 0 20 21" fill="none" xmlns="http://www.w3.org/2000/svg">
<path d="M7.46895 0C9.3048 0 11.0655 0.802217 12.3636 2.23017C13.6617 3.65813 14.391 5.59485 14.391 7.61429C14.391 9.50029 13.7627 11.234 12.7297 12.5694L13.0173 12.8857H13.8586L19.1832 18.7429L17.5858 20.5L12.2612 14.6429V13.7174L11.9736 13.4011C10.7596 14.5374 9.1835 15.2286 7.46895 15.2286C5.6331 15.2286 3.87245 14.4264 2.5743 12.9984C1.27616 11.5704 0.546875 9.63372 0.546875 7.61429C0.546875 5.59485 1.27616 3.65813 2.5743 2.23017C3.87245 0.802217 5.6331 0 7.46895 0ZM7.46895 2.34286C4.80662 2.34286 2.67675 4.68571 2.67675 7.61429C2.67675 10.5429 4.80662 12.8857 7.46895 12.8857C10.1313 12.8857 12.2612 10.5429 12.2612 7.61429C12.2612 4.68571 10.1313 2.34286 7.46895 2.34286Z" fill="black" fill-opacity="0.6"/>
</svg>
