<svg width="77" height="62" viewBox="0 0 77 62" fill="none" xmlns="http://www.w3.org/2000/svg">
<path d="M11.3832 44.4895C10.7158 44.4895 10.1265 44.3768 9.61517 44.1515C9.10383 43.9175 8.70083 43.5882 8.40617 43.1635C8.1115 42.7302 7.95983 42.2058 7.95117 41.5905H9.70617C9.7235 42.0152 9.87517 42.3748 10.1612 42.6695C10.4558 42.9555 10.8588 43.0985 11.3702 43.0985C11.8122 43.0985 12.1632 42.9945 12.4232 42.7865C12.6832 42.5698 12.8132 42.2838 12.8132 41.9285C12.8132 41.5558 12.6962 41.2655 12.4622 41.0575C12.2368 40.8495 11.9335 40.6805 11.5522 40.5505C11.1708 40.4205 10.7635 40.2818 10.3302 40.1345C9.62817 39.8918 9.09083 39.5798 8.71817 39.1985C8.35417 38.8172 8.17217 38.3102 8.17217 37.6775C8.1635 37.1402 8.28917 36.6808 8.54917 36.2995C8.81783 35.9095 9.18183 35.6105 9.64117 35.4025C10.1005 35.1858 10.6292 35.0775 11.2272 35.0775C11.8338 35.0775 12.3668 35.1858 12.8262 35.4025C13.2942 35.6192 13.6582 35.9225 13.9182 36.3125C14.1868 36.7025 14.3298 37.1662 14.3472 37.7035H12.5662C12.5575 37.3828 12.4318 37.1012 12.1892 36.8585C11.9552 36.6072 11.6258 36.4815 11.2012 36.4815C10.8372 36.4728 10.5295 36.5638 10.2782 36.7545C10.0355 36.9365 9.91417 37.2052 9.91417 37.5605C9.91417 37.8638 10.0095 38.1065 10.2002 38.2885C10.3908 38.4618 10.6508 38.6092 10.9802 38.7305C11.3095 38.8518 11.6865 38.9818 12.1112 39.1205C12.5618 39.2765 12.9735 39.4585 13.3462 39.6665C13.7188 39.8745 14.0178 40.1518 14.2432 40.4985C14.4685 40.8365 14.5812 41.2742 14.5812 41.8115C14.5812 42.2882 14.4598 42.7302 14.2172 43.1375C13.9745 43.5448 13.6148 43.8742 13.1382 44.1255C12.6615 44.3682 12.0765 44.4895 11.3832 44.4895ZM18.152 44.4895C17.346 44.4895 16.722 44.2382 16.28 43.7355C15.8467 43.2328 15.63 42.4962 15.63 41.5255V37.8855H17.281V41.3695C17.281 41.9242 17.3937 42.3488 17.619 42.6435C17.8443 42.9382 18.1997 43.0855 18.685 43.0855C19.1443 43.0855 19.5213 42.9208 19.816 42.5915C20.1193 42.2622 20.271 41.8028 20.271 41.2135V37.8855H21.935V44.3335H20.466L20.336 43.2415C20.1367 43.6228 19.8463 43.9262 19.465 44.1515C19.0923 44.3768 18.6547 44.4895 18.152 44.4895ZM27.2052 44.4895C26.7199 44.4895 26.2952 44.3985 25.9312 44.2165C25.5672 44.0345 25.2725 43.7788 25.0472 43.4495L24.8652 44.3335H23.3832V34.9735H25.0472V38.8085C25.2552 38.5225 25.5282 38.2712 25.8662 38.0545C26.2128 37.8378 26.6592 37.7295 27.2052 37.7295C27.8119 37.7295 28.3535 37.8768 28.8302 38.1715C29.3069 38.4662 29.6839 38.8692 29.9612 39.3805C30.2385 39.8918 30.3772 40.4725 30.3772 41.1225C30.3772 41.7725 30.2385 42.3532 29.9612 42.8645C29.6839 43.3672 29.3069 43.7658 28.8302 44.0605C28.3535 44.3465 27.8119 44.4895 27.2052 44.4895ZM26.8542 43.0335C27.3829 43.0335 27.8205 42.8558 28.1672 42.5005C28.5139 42.1452 28.6872 41.6858 28.6872 41.1225C28.6872 40.5592 28.5139 40.0955 28.1672 39.7315C27.8205 39.3675 27.3829 39.1855 26.8542 39.1855C26.3169 39.1855 25.8748 39.3675 25.5282 39.7315C25.1902 40.0868 25.0212 40.5462 25.0212 41.1095C25.0212 41.6728 25.1902 42.1365 25.5282 42.5005C25.8748 42.8558 26.3169 43.0335 26.8542 43.0335ZM34.2687 44.4895C33.6967 44.4895 33.194 44.3985 32.7607 44.2165C32.3273 44.0258 31.9807 43.7658 31.7207 43.4365C31.4607 43.1072 31.3047 42.7258 31.2527 42.2925H32.9297C32.9817 42.5438 33.1203 42.7605 33.3457 42.9425C33.5797 43.1158 33.8787 43.2025 34.2427 43.2025C34.6067 43.2025 34.871 43.1288 35.0357 42.9815C35.209 42.8342 35.2957 42.6652 35.2957 42.4745C35.2957 42.1972 35.1743 42.0108 34.9317 41.9155C34.689 41.8115 34.351 41.7118 33.9177 41.6165C33.6403 41.5558 33.3587 41.4822 33.0727 41.3955C32.7867 41.3088 32.5223 41.2005 32.2797 41.0705C32.0457 40.9318 31.855 40.7585 31.7077 40.5505C31.5603 40.3338 31.4867 40.0695 31.4867 39.7575C31.4867 39.1855 31.712 38.7045 32.1627 38.3145C32.622 37.9245 33.2633 37.7295 34.0867 37.7295C34.8493 37.7295 35.456 37.9072 35.9067 38.2625C36.366 38.6178 36.639 39.1075 36.7257 39.7315H35.1527C35.0573 39.2548 34.6977 39.0165 34.0737 39.0165C33.7617 39.0165 33.519 39.0772 33.3457 39.1985C33.181 39.3198 33.0987 39.4715 33.0987 39.6535C33.0987 39.8442 33.2243 39.9958 33.4757 40.1085C33.727 40.2212 34.0607 40.3252 34.4767 40.4205C34.9273 40.5245 35.339 40.6415 35.7117 40.7715C36.093 40.8928 36.3963 41.0792 36.6217 41.3305C36.847 41.5732 36.9597 41.9242 36.9597 42.3835C36.9683 42.7822 36.8643 43.1418 36.6477 43.4625C36.431 43.7832 36.119 44.0345 35.7117 44.2165C35.3043 44.3985 34.8233 44.4895 34.2687 44.4895ZM41.3327 44.4895C40.6741 44.4895 40.0934 44.3465 39.5907 44.0605C39.0881 43.7745 38.6894 43.3758 38.3947 42.8645C38.1087 42.3532 37.9657 41.7682 37.9657 41.1095C37.9657 40.4508 38.1087 39.8658 38.3947 39.3545C38.6894 38.8432 39.0881 38.4445 39.5907 38.1585C40.0934 37.8725 40.6741 37.7295 41.3327 37.7295C42.1561 37.7295 42.8494 37.9462 43.4127 38.3795C43.9761 38.8042 44.3357 39.3935 44.4917 40.1475H42.7367C42.6501 39.8355 42.4767 39.5928 42.2167 39.4195C41.9654 39.2375 41.6664 39.1465 41.3197 39.1465C40.8604 39.1465 40.4704 39.3198 40.1497 39.6665C39.8291 40.0132 39.6687 40.4942 39.6687 41.1095C39.6687 41.7248 39.8291 42.2058 40.1497 42.5525C40.4704 42.8992 40.8604 43.0725 41.3197 43.0725C41.6664 43.0725 41.9654 42.9858 42.2167 42.8125C42.4767 42.6392 42.6501 42.3922 42.7367 42.0715H44.4917C44.3357 42.7995 43.9761 43.3845 43.4127 43.8265C42.8494 44.2685 42.1561 44.4895 41.3327 44.4895ZM45.7087 44.3335V37.8855H47.1907L47.3467 39.0945C47.5807 38.6785 47.897 38.3492 48.2957 38.1065C48.703 37.8552 49.1797 37.7295 49.7257 37.7295V39.4845H49.2577C48.8937 39.4845 48.5687 39.5408 48.2827 39.6535C47.9967 39.7662 47.7713 39.9612 47.6067 40.2385C47.4507 40.5158 47.3727 40.9015 47.3727 41.3955V44.3335H45.7087ZM51.4999 36.8845C51.1966 36.8845 50.9453 36.7935 50.7459 36.6115C50.5553 36.4295 50.4599 36.1998 50.4599 35.9225C50.4599 35.6452 50.5553 35.4198 50.7459 35.2465C50.9453 35.0645 51.1966 34.9735 51.4999 34.9735C51.8033 34.9735 52.0503 35.0645 52.241 35.2465C52.4403 35.4198 52.54 35.6452 52.54 35.9225C52.54 36.1998 52.4403 36.4295 52.241 36.6115C52.0503 36.7935 51.8033 36.8845 51.4999 36.8845ZM50.6679 44.3335V37.8855H52.332V44.3335H50.6679ZM53.8088 47.1935V37.8855H55.2908L55.4728 38.8085C55.6808 38.5225 55.9538 38.2712 56.2918 38.0545C56.6384 37.8378 57.0848 37.7295 57.6308 37.7295C58.2374 37.7295 58.7791 37.8768 59.2558 38.1715C59.7324 38.4662 60.1094 38.8692 60.3868 39.3805C60.6641 39.8918 60.8028 40.4725 60.8028 41.1225C60.8028 41.7725 60.6641 42.3532 60.3868 42.8645C60.1094 43.3672 59.7324 43.7658 59.2558 44.0605C58.7791 44.3465 58.2374 44.4895 57.6308 44.4895C57.1454 44.4895 56.7208 44.3985 56.3568 44.2165C55.9928 44.0345 55.6981 43.7788 55.4728 43.4495V47.1935H53.8088ZM57.2798 43.0335C57.8084 43.0335 58.2461 42.8558 58.5928 42.5005C58.9394 42.1452 59.1128 41.6858 59.1128 41.1225C59.1128 40.5592 58.9394 40.0955 58.5928 39.7315C58.2461 39.3675 57.8084 39.1855 57.2798 39.1855C56.7424 39.1855 56.3004 39.3675 55.9538 39.7315C55.6158 40.0868 55.4468 40.5462 55.4468 41.1095C55.4468 41.6728 55.6158 42.1365 55.9538 42.5005C56.3004 42.8558 56.7424 43.0335 57.2798 43.0335ZM64.6483 44.3335C63.9723 44.3335 63.4307 44.1688 63.0233 43.8395C62.616 43.5102 62.4123 42.9252 62.4123 42.0845V39.2765H61.3073V37.8855H62.4123L62.6073 36.1565H64.0763V37.8855H65.8183V39.2765H64.0763V42.0975C64.0763 42.4095 64.1413 42.6262 64.2713 42.7475C64.41 42.8602 64.644 42.9165 64.9733 42.9165H65.7793V44.3335H64.6483ZM67.884 36.8845C67.5807 36.8845 67.3293 36.7935 67.13 36.6115C66.9393 36.4295 66.844 36.1998 66.844 35.9225C66.844 35.6452 66.9393 35.4198 67.13 35.2465C67.3293 35.0645 67.5807 34.9735 67.884 34.9735C68.1873 34.9735 68.4343 35.0645 68.625 35.2465C68.8243 35.4198 68.924 35.6452 68.924 35.9225C68.924 36.1998 68.8243 36.4295 68.625 36.6115C68.4343 36.7935 68.1873 36.8845 67.884 36.8845ZM67.052 44.3335V37.8855H68.716V44.3335H67.052ZM31.3875 61.4895C30.7635 61.4895 30.2001 61.3465 29.6975 61.0605C29.2035 60.7745 28.8091 60.3802 28.5145 59.8775C28.2285 59.3662 28.0855 58.7768 28.0855 58.1095C28.0855 57.4422 28.2328 56.8572 28.5275 56.3545C28.8221 55.8432 29.2165 55.4445 29.7105 55.1585C30.2131 54.8725 30.7765 54.7295 31.4005 54.7295C32.0158 54.7295 32.5705 54.8725 33.0645 55.1585C33.5671 55.4445 33.9615 55.8432 34.2475 56.3545C34.5421 56.8572 34.6895 57.4422 34.6895 58.1095C34.6895 58.7768 34.5421 59.3662 34.2475 59.8775C33.9615 60.3802 33.5671 60.7745 33.0645 61.0605C32.5618 61.3465 32.0028 61.4895 31.3875 61.4895ZM31.3875 60.0465C31.8208 60.0465 32.1978 59.8862 32.5185 59.5655C32.8391 59.2362 32.9995 58.7508 32.9995 58.1095C32.9995 57.4682 32.8391 56.9872 32.5185 56.6665C32.1978 56.3372 31.8251 56.1725 31.4005 56.1725C30.9585 56.1725 30.5771 56.3372 30.2565 56.6665C29.9445 56.9872 29.7885 57.4682 29.7885 58.1095C29.7885 58.7508 29.9445 59.2362 30.2565 59.5655C30.5771 59.8862 30.9541 60.0465 31.3875 60.0465ZM35.9173 61.3335V54.8855H37.3863L37.5163 55.9775C37.7156 55.5962 38.0016 55.2928 38.3743 55.0675C38.7556 54.8422 39.2019 54.7295 39.7133 54.7295C40.5106 54.7295 41.1303 54.9808 41.5723 55.4835C42.0143 55.9862 42.2353 56.7228 42.2353 57.6935V61.3335H40.5713V57.8495C40.5713 57.2948 40.4586 56.8702 40.2333 56.5755C40.0079 56.2808 39.6569 56.1335 39.1803 56.1335C38.7123 56.1335 38.3266 56.2982 38.0233 56.6275C37.7286 56.9568 37.5813 57.4162 37.5813 58.0055V61.3335H35.9173ZM46.2314 61.4895C45.6594 61.4895 45.1568 61.3985 44.7234 61.2165C44.2901 61.0258 43.9434 60.7658 43.6834 60.4365C43.4234 60.1072 43.2674 59.7258 43.2154 59.2925H44.8924C44.9444 59.5438 45.0831 59.7605 45.3084 59.9425C45.5424 60.1158 45.8414 60.2025 46.2054 60.2025C46.5694 60.2025 46.8338 60.1288 46.9984 59.9815C47.1718 59.8342 47.2584 59.6652 47.2584 59.4745C47.2584 59.1972 47.1371 59.0108 46.8944 58.9155C46.6518 58.8115 46.3138 58.7118 45.8804 58.6165C45.6031 58.5558 45.3214 58.4822 45.0354 58.3955C44.7494 58.3088 44.4851 58.2005 44.2424 58.0705C44.0084 57.9318 43.8178 57.7585 43.6704 57.5505C43.5231 57.3338 43.4494 57.0695 43.4494 56.7575C43.4494 56.1855 43.6748 55.7045 44.1254 55.3145C44.5848 54.9245 45.2261 54.7295 46.0494 54.7295C46.8121 54.7295 47.4188 54.9072 47.8694 55.2625C48.3288 55.6178 48.6018 56.1075 48.6884 56.7315H47.1154C47.0201 56.2548 46.6604 56.0165 46.0364 56.0165C45.7244 56.0165 45.4818 56.0772 45.3084 56.1985C45.1438 56.3198 45.0614 56.4715 45.0614 56.6535C45.0614 56.8442 45.1871 56.9958 45.4384 57.1085C45.6898 57.2212 46.0234 57.3252 46.4394 57.4205C46.8901 57.5245 47.3018 57.6415 47.6744 57.7715C48.0558 57.8928 48.3591 58.0792 48.5844 58.3305C48.8098 58.5732 48.9224 58.9242 48.9224 59.3835C48.9311 59.7822 48.8271 60.1418 48.6104 60.4625C48.3938 60.7832 48.0818 61.0345 47.6744 61.2165C47.2671 61.3985 46.7861 61.4895 46.2314 61.4895Z" fill="#686868"/>
<rect x="20.5234" y="1.5" width="34.1412" height="27.9144" rx="10.5" stroke="#686868" stroke-width="3"/>
<path d="M34.7304 6.45215V13.2147H28.083V17.723H34.7304V24.4856H39.1621V17.723H45.8095V13.2147H39.1621V6.45215H34.7304Z" fill="#686868"/>
</svg>
