<svg width="207" height="220" viewBox="0 0 207 220" fill="none" xmlns="http://www.w3.org/2000/svg">
<path d="M103.436 0.944336C89.9523 0.944336 76.601 3.76514 64.144 9.2457C51.687 14.7263 40.3684 22.7592 30.8342 32.886C11.5791 53.3379 0.761719 81.0766 0.761719 110C0.761719 138.923 11.5791 166.662 30.8342 187.114C40.3684 197.241 51.687 205.274 64.144 210.754C76.601 216.235 89.9523 219.055 103.436 219.055C130.666 219.055 156.782 207.566 176.037 187.114C195.292 166.662 206.109 138.923 206.109 110C206.109 95.6785 203.454 81.4974 198.294 68.2661C193.134 55.0349 185.571 43.0127 176.037 32.886C166.503 22.7592 155.184 14.7263 142.727 9.2457C130.27 3.76514 116.919 0.944336 103.436 0.944336ZM52.8174 178.487C57.2324 168.672 84.1329 159.075 103.436 159.075C122.738 159.075 149.639 168.672 154.054 178.487C140.09 190.265 122.533 197.244 103.436 197.244C84.3383 197.244 66.781 190.265 52.8174 178.487ZM168.736 162.674C154.054 143.698 118.426 137.264 103.436 137.264C88.4452 137.264 52.8174 143.698 38.135 162.674C27.6623 148.169 21.2965 129.848 21.2965 110C21.2965 61.9064 58.1564 22.7554 103.436 22.7554C148.715 22.7554 185.575 61.9064 185.575 110C185.575 129.848 179.209 148.169 168.736 162.674ZM103.436 44.5666C83.5169 44.5666 67.4997 61.5792 67.4997 82.736C67.4997 103.893 83.5169 120.905 103.436 120.905C123.354 120.905 139.371 103.893 139.371 82.736C139.371 61.5792 123.354 44.5666 103.436 44.5666ZM103.436 99.0943C99.351 99.0943 95.4337 97.3709 92.5454 94.3031C89.6571 91.2353 88.0345 87.0745 88.0345 82.736C88.0345 78.3975 89.6571 74.2367 92.5454 71.1689C95.4337 68.1011 99.351 66.3777 103.436 66.3777C107.52 66.3777 111.438 68.1011 114.326 71.1689C117.214 74.2367 118.837 78.3975 118.837 82.736C118.837 87.0745 117.214 91.2353 114.326 94.3031C111.438 97.3709 107.52 99.0943 103.436 99.0943Z" fill="black" fill-opacity="0.46"/>
</svg>
