<svg width="146" height="60" viewBox="0 0 146 60" fill="none" xmlns="http://www.w3.org/2000/svg">
    <path
        d="M127.467 0.258667H18.5325C8.42211 0.258667 0.226013 9.63753 0.226013 21.2069V38.7932C0.226013 50.3626 8.42211 59.7414 18.5325 59.7414H127.467C137.578 59.7414 145.774 50.3626 145.774 38.7932V21.2069C145.774 9.63753 137.578 0.258667 127.467 0.258667Z"
        fill="black" />
    <path
        d="M40.4112 37.4959C39.5463 37.4959 38.7433 37.3616 38.002 37.093C37.2607 36.8102 36.5811 36.3719 35.9634 35.7782L37.0939 33.7211C37.5757 34.2018 38.0946 34.5552 38.6506 34.7814C39.2189 35.0076 39.8243 35.1207 40.4668 35.1207C41.9247 35.1207 42.6536 34.527 42.6536 33.3394C42.6536 32.8869 42.5486 32.5476 42.3386 32.3214C42.1409 32.0811 41.7949 31.8902 41.3007 31.7488L39.3548 31.1975C38.3541 30.9147 37.6128 30.4693 37.1309 29.8614C36.6614 29.2393 36.4267 28.4123 36.4267 27.3802C36.4267 26.0795 36.8035 25.0616 37.5572 24.3264C38.3108 23.5771 39.3672 23.2025 40.7262 23.2025C42.1965 23.2025 43.4999 23.6619 44.6366 24.5809L43.5802 26.6804C42.7895 25.9452 41.8382 25.5776 40.7262 25.5776C39.3548 25.5776 38.6691 26.1361 38.6691 27.253C38.6691 27.6488 38.768 27.9669 38.9656 28.2073C39.1757 28.4335 39.5278 28.6173 40.022 28.7587L41.9679 29.3101C42.9687 29.5928 43.7038 30.0452 44.1733 30.6673C44.6551 31.2752 44.896 32.1235 44.896 33.2121C44.896 34.5411 44.5007 35.5873 43.71 36.3507C42.9316 37.1142 41.832 37.4959 40.4112 37.4959ZM47.3994 37.2414V22.1845H49.5862V31.4307L53.3113 27.147H56.1282L52.4402 31.1975L56.2209 37.2414H53.5336L50.865 32.9364L49.5862 34.3573V37.2414H47.3994ZM60.9295 37.2414V29.3949H57.5195V27.147H63.1163V34.9935H66.5263V37.2414H60.9295ZM61.8376 25.3232C61.4176 25.3232 61.0655 25.1606 60.7812 24.8354C60.4973 24.5102 60.355 24.1073 60.355 23.6266C60.355 23.1459 60.4973 22.743 60.7812 22.4178C61.0655 22.0926 61.4176 21.9301 61.8376 21.9301C62.2579 21.9301 62.6101 22.0926 62.8939 22.4178C63.1782 22.743 63.3202 23.1459 63.3202 23.6266C63.3202 24.1073 63.1782 24.5102 62.8939 24.8354C62.6101 25.1606 62.2579 25.3232 61.8376 25.3232ZM74.6449 37.4959C72.3717 37.4959 71.2349 36.2023 71.2349 33.6151V24.4537H67.8249V22.1845H73.4217V33.2333C73.4217 33.9544 73.5393 34.4633 73.7739 34.7602C74.0211 35.0571 74.441 35.2056 75.0341 35.2056C75.7632 35.2056 76.4674 34.9652 77.1468 34.4845L77.7028 36.6052C76.8132 37.199 75.7939 37.4959 74.6449 37.4959ZM85.3955 37.4959C83.1219 37.4959 81.9856 36.2023 81.9856 33.6151V24.4537H78.5756V22.1845H84.1724V33.2333C84.1724 33.9544 84.2895 34.4633 84.5245 34.7602C84.7713 35.0571 85.1917 35.2056 85.7847 35.2056C86.5134 35.2056 87.2176 34.9652 87.8974 34.4845L88.4534 36.6052C87.5639 37.199 86.5446 37.4959 85.3955 37.4959ZM94.7743 37.4959C93.242 37.4959 92.0374 37.0223 91.1605 36.0751C90.2832 35.1278 89.8447 33.8342 89.8447 32.1942C89.8447 31.1338 90.0359 30.2078 90.4192 29.4161C90.8021 28.6243 91.3332 28.0093 92.013 27.5711C92.6924 27.1187 93.4829 26.8925 94.3852 26.8925C95.2621 26.8925 96.0219 27.1045 96.6647 27.5287C97.3192 27.9387 97.8259 28.5183 98.1843 29.2676C98.5423 30.017 98.7218 30.8935 98.7218 31.8973C98.7218 32.0811 98.7155 32.2719 98.7032 32.4699C98.6906 32.6537 98.6662 32.8516 98.6291 33.0637H92.0686C92.3032 34.6047 93.2113 35.3752 94.7929 35.3752C95.7195 35.3752 96.6276 35.05 97.5172 34.3997L98.3326 36.2447C97.764 36.683 97.1958 37.0011 96.6276 37.199C96.059 37.397 95.4415 37.4959 94.7743 37.4959ZM92.0871 31.1763H96.572C96.3618 29.7342 95.6269 29.0132 94.3666 29.0132C93.1186 29.0132 92.3588 29.7342 92.0871 31.1763ZM101.67 37.2414V27.147H103.375L103.597 28.5466C104.054 27.9669 104.549 27.5499 105.08 27.2954C105.611 27.0268 106.21 26.8925 106.877 26.8925C107.779 26.8925 108.558 27.1611 109.213 27.6983L108.397 29.8614C108.125 29.6352 107.847 29.4726 107.563 29.3737C107.291 29.2606 106.995 29.204 106.674 29.204C105.624 29.204 104.684 29.7837 103.857 30.943V37.2414H101.67Z"
        fill="white" />
    <path
        d="M127.467 0.258667H18.5325C8.42211 0.258667 0.226013 9.63753 0.226013 21.2069V38.7932C0.226013 50.3626 8.42211 59.7414 18.5325 59.7414H127.467C137.578 59.7414 145.774 50.3626 145.774 38.7932V21.2069C145.774 9.63753 137.578 0.258667 127.467 0.258667Z"
        stroke="white" />
</svg>