<svg width="145" height="60" viewBox="0 0 145 60" fill="none" xmlns="http://www.w3.org/2000/svg">
    <path
        d="M35.7809 37.14C34.7543 37.14 33.8343 36.9733 33.0209 36.64C32.2076 36.3067 31.5543 35.8133 31.0609 35.16C30.5809 34.5067 30.3276 33.72 30.3009 32.8H33.9409C33.9943 33.32 34.1743 33.72 34.4809 34C34.7876 34.2667 35.1876 34.4 35.6809 34.4C36.1876 34.4 36.5876 34.2867 36.8809 34.06C37.1743 33.82 37.3209 33.4933 37.3209 33.08C37.3209 32.7333 37.2009 32.4467 36.9609 32.22C36.7343 31.9933 36.4476 31.8067 36.1009 31.66C35.7676 31.5133 35.2876 31.3467 34.6609 31.16C33.7543 30.88 33.0143 30.6 32.4409 30.32C31.8676 30.04 31.3743 29.6267 30.9609 29.08C30.5476 28.5333 30.3409 27.82 30.3409 26.94C30.3409 25.6333 30.8143 24.6133 31.7609 23.88C32.7076 23.1333 33.9409 22.76 35.4609 22.76C37.0076 22.76 38.2543 23.1333 39.2009 23.88C40.1476 24.6133 40.6543 25.64 40.7209 26.96H37.0209C36.9943 26.5067 36.8276 26.1533 36.5209 25.9C36.2143 25.6333 35.8209 25.5 35.3409 25.5C34.9276 25.5 34.5943 25.6133 34.3409 25.84C34.0876 26.0533 33.9609 26.3667 33.9609 26.78C33.9609 27.2333 34.1743 27.5867 34.6009 27.84C35.0276 28.0933 35.6943 28.3667 36.6009 28.66C37.5076 28.9667 38.2409 29.26 38.8009 29.54C39.3743 29.82 39.8676 30.2267 40.2809 30.76C40.6943 31.2933 40.9009 31.98 40.9009 32.82C40.9009 33.62 40.6943 34.3467 40.2809 35C39.8809 35.6533 39.2943 36.1733 38.5209 36.56C37.7476 36.9467 36.8343 37.14 35.7809 37.14ZM53.1456 37L48.4256 30.8V37H45.0056V22.96H48.4256V29.12L53.1056 22.96H57.1256L51.6856 29.84L57.3256 37H53.1456ZM64.3709 22.96V37H60.9509V22.96H64.3709ZM72.2694 34.36H76.7494V37H68.8494V22.96H72.2694V34.36ZM83.8006 34.36H88.2806V37H80.3806V22.96H83.8006V34.36ZM95.3319 25.7V28.54H99.9119V31.18H95.3319V34.26H100.512V37H91.9119V22.96H100.512V25.7H95.3319ZM111.892 37L108.972 31.7H108.152V37H104.732V22.96H110.472C111.579 22.96 112.519 23.1533 113.292 23.54C114.079 23.9267 114.666 24.46 115.052 25.14C115.439 25.8067 115.632 26.5533 115.632 27.38C115.632 28.3133 115.366 29.1467 114.832 29.88C114.312 30.6133 113.539 31.1333 112.512 31.44L115.752 37H111.892ZM108.152 29.28H110.272C110.899 29.28 111.366 29.1267 111.672 28.82C111.992 28.5133 112.152 28.08 112.152 27.52C112.152 26.9867 111.992 26.5667 111.672 26.26C111.366 25.9533 110.899 25.8 110.272 25.8H108.152V29.28Z"
        fill="black" />
    <rect x="2" y="2" width="141" height="56" rx="10" stroke="black" stroke-width="4" />
</svg>